<svg width="64" height="64" viewBox="0 0 64 64" fill="none" xmlns="http://www.w3.org/2000/svg">
<path d="M54.6274 54.6274C57.5989 51.6559 59.956 48.1283 61.5641 44.2459C63.1723 40.3635 64 36.2023 64 32C64 27.7977 63.1723 23.6365 61.5641 19.7541C59.956 15.8717 57.5989 12.3441 54.6274 9.37258L32 32L54.6274 54.6274Z" fill="#A04100"/>
<path d="M9.37258 54.6274C12.3441 57.5989 15.8717 59.956 19.7541 61.5641C23.6365 63.1723 27.7977 64 32 64C36.2023 64 40.3635 63.1723 44.2459 61.5641C48.1283 59.956 51.6559 57.5989 54.6274 54.6274L32 32L9.37258 54.6274Z" fill="#FB8532"/>
<path d="M54.6274 9.37258C51.6559 6.40111 48.1283 4.044 44.2459 2.43585C40.3634 0.827703 36.2023 -7.01317e-07 32 0C27.7977 7.01318e-07 23.6365 0.827706 19.7541 2.43586C15.8717 4.04401 12.3441 6.40111 9.37258 9.37259C6.4011 12.3441 4.044 15.8717 2.43585 19.7541C0.827703 23.6366 -8.85006e-07 27.7977 0 32C8.85007e-07 36.2023 0.827706 40.3635 2.43586 44.2459C4.04401 48.1283 6.40111 51.6559 9.37259 54.6274L32 32L54.6274 9.37258Z" fill="#1B1F23"/>
</svg>
