<svg width="64" height="64" viewBox="0 0 64 64" fill="none" xmlns="http://www.w3.org/2000/svg">
<circle cx="32" cy="32" r="32" fill="#A04100"/>
<path d="M54.6274 9.37258C50.1521 4.8973 44.4503 1.8496 38.2429 0.61487C32.0355 -0.619856 25.6014 0.0138516 19.7541 2.43586C13.9069 4.85786 8.90917 8.95938 5.39297 14.2218C1.87677 19.4841 -9.55652e-07 25.671 0 32C9.55653e-07 38.329 1.87677 44.5159 5.39298 49.7783C8.90918 55.0406 13.9069 59.1421 19.7541 61.5641C25.6014 63.9861 32.0355 64.6199 38.2429 63.3851C44.4503 62.1504 50.1521 59.1027 54.6274 54.6274L32 32L54.6274 9.37258Z" fill="#FB8532"/>
<path d="M54.6274 9.37258C51.6559 6.40111 48.1283 4.044 44.2459 2.43585C40.3634 0.827703 36.2023 -7.01317e-07 32 0C27.7977 7.01318e-07 23.6365 0.827706 19.7541 2.43586C15.8717 4.04401 12.3441 6.40111 9.37258 9.37259C6.4011 12.3441 4.044 15.8717 2.43585 19.7541C0.827703 23.6366 -8.85006e-07 27.7977 0 32C8.85007e-07 36.2023 0.827706 40.3635 2.43586 44.2459C4.04401 48.1283 6.40111 51.6559 9.37259 54.6274L32 32L54.6274 9.37258Z" fill="#1B1F23"/>
</svg>
